<svg width="17" height="13" xmlns="http://www.w3.org/2000/svg" xmlns:xlink="http://www.w3.org/1999/xlink" xmlns:svgjs="http://svgjs.com/svgjs" viewBox="0 0.318 17 12.364" fill="none" stroke-miterlimit="100" stroke-linecap="round" stroke="#237401" stroke-width="2"><svg xmlns="http://www.w3.org/2000/svg" width="17" height="13" viewBox="0 0.25 16.5 12"><path paint-order="stroke fill markers" d="M12.705 10.705A7.553 7.553 0 0 1 8.25 12.25c-5.25 0-8.25-6-8.25-6a13.834 13.834 0 0 1 3.795-4.455l8.91 8.91M6.675.43A6.839 6.839 0 0 1 8.25.25c5.25 0 8.25 6 8.25 6a13.869 13.869 0 0 1-1.62 2.392L6.675.43M9.84 7.84a2.25 2.25 0 1 1-3.18-3.18l3.18 3.18"/></svg></svg>