<svg width="131" height="55" xmlns="http://www.w3.org/2000/svg" xmlns:xlink="http://www.w3.org/1999/xlink" xmlns:svgjs="http://svgjs.com/svgjs" viewBox="48 205 131 55"><svg width="55" height="55" xmlns="http://www.w3.org/2000/svg" xmlns:xlink="http://www.w3.org/1999/xlink" xmlns:svgjs="http://svgjs.com/svgjs" fill="none" x="48" y="205"><svg xmlns="http://www.w3.org/2000/svg" xmlns:xlink="http://www.w3.org/1999/xlink" width="55" height="55"><path paint-order="stroke fill markers" d="M27.5 55C12.292 55 0 42.707 0 27.5 0 12.292 12.292 0 27.5 0 42.707 0 55 12.292 55 27.5 55 42.707 42.707 55 27.5 55z"/></svg></svg><svg width="33" height="33" xmlns="http://www.w3.org/2000/svg" xmlns:xlink="http://www.w3.org/1999/xlink" xmlns:svgjs="http://svgjs.com/svgjs" fill="#237401" x="146" y="216"><svg xmlns="http://www.w3.org/2000/svg" xmlns:xlink="http://www.w3.org/1999/xlink" width="33" height="33"><path paint-order="stroke fill markers" fill-rule="evenodd" d="M16.5 33C7.375 33 0 25.624 0 16.5 0 7.375 7.375 0 16.5 0 25.624 0 33 7.375 33 16.5 33 25.624 25.624 33 16.5 33z"/></svg></svg><svg width="15" height="15" xmlns="http://www.w3.org/2000/svg" xmlns:xlink="http://www.w3.org/1999/xlink" xmlns:svgjs="http://svgjs.com/svgjs" viewBox="155 225 15 15" x="155" y="225"><svg width="15" height="9" xmlns="http://www.w3.org/2000/svg" xmlns:xlink="http://www.w3.org/1999/xlink" xmlns:svgjs="http://svgjs.com/svgjs" viewBox="0 0.409 15 8.182" fill="#fff" x="155" y="225"><svg xmlns="http://www.w3.org/2000/svg" xmlns:xlink="http://www.w3.org/1999/xlink" width="15" height="9" viewBox="0.9 0.9 13.319 7.265"><path paint-order="stroke fill markers" fill-rule="evenodd" d="M13.614 3.927H2.967L4.96 1.933a.605.605 0 0 0-.856-.856L1.077 4.104a.606.606 0 0 0 0 .857l3.027 3.027a.604.604 0 0 0 .856 0 .606.606 0 0 0 0-.857L2.967 5.138h10.647a.605.605 0 0 0 0-1.21z"/></svg></svg><svg width="15" height="9" xmlns="http://www.w3.org/2000/svg" xmlns:xlink="http://www.w3.org/1999/xlink" xmlns:svgjs="http://svgjs.com/svgjs" viewBox="0 0.409 15 8.182" fill="#fff" x="155" y="231"><svg xmlns="http://www.w3.org/2000/svg" width="15" height="9" viewBox="0.9 0.954 13.319 7.265"><path paint-order="stroke fill markers" fill-rule="evenodd" d="M11.015 1.131a.606.606 0 0 0-.857.857l1.994 1.993H1.505a.606.606 0 0 0 0 1.211h10.647l-1.993 1.994a.605.605 0 1 0 .856.856l3.027-3.027a.606.606 0 0 0 0-.856L11.015 1.13z"/></svg></svg></svg></svg>