<svg xmlns="http://www.w3.org/2000/svg" width="16.332" height="9.799" viewBox="0 0 16.332 9.799">
  <path id="Path_1368" data-name="Path 1368" d="M6.583,7.633H18.016a.772.772,0,0,0,.817-.817A.772.772,0,0,0,18.016,6H6.583a.772.772,0,0,0-.817.817A.772.772,0,0,0,6.583,7.633Zm11.433,2.45H9.85a.817.817,0,1,0,0,1.633h8.166a.817.817,0,1,0,0-1.633Zm0,4.083h-4.9a.817.817,0,1,0,0,1.633h4.9a.817.817,0,1,0,0-1.633ZM3.317,6a.772.772,0,0,0-.817.817.772.772,0,0,0,.817.817.772.772,0,0,0,.817-.817A.772.772,0,0,0,3.317,6Zm3.266,4.083a.817.817,0,1,0,0,1.633.817.817,0,1,0,0-1.633ZM9.85,14.166a.817.817,0,1,0,.817.817A.772.772,0,0,0,9.85,14.166Z" transform="translate(-2.5 -6)" fill="#388118"/>
</svg>

