<svg xmlns="http://www.w3.org/2000/svg" width="29.502" height="29.505" viewBox="0 0 29.502 29.505">
  <path id="Path_1365" data-name="Path 1365" d="M20.887,19.648a.983.983,0,0,1-.654-.8.949.949,0,0,1,.393-.921c1.625-1.163,2.991-4.578,2.991-6.106V9.155A8.077,8.077,0,0,0,15.993,1,7.867,7.867,0,0,0,7.884,8.867v2.95c0,1.528,1.367,4.943,2.988,6.106a.948.948,0,0,1,.393.921.983.983,0,0,1-.654.8C6.487,21.15,1,23.806,1,29.518a.983.983,0,0,0,.983.983H29.518a.983.983,0,0,0,.983-.983C30.5,23.806,25.014,21.15,20.887,19.648ZM3.041,28.535c.457-2.95,3.049-5.15,8.246-7.038a2.963,2.963,0,0,0,1.929-2.384,2.93,2.93,0,0,0-1.2-2.787c-1.076-.772-2.163-3.581-2.163-4.509V8.867a5.9,5.9,0,0,1,6.083-5.9,6.1,6.1,0,0,1,5.717,6.188v2.662c0,.928-1.088,3.737-2.163,4.508a2.931,2.931,0,0,0-1.2,2.787A2.963,2.963,0,0,0,20.218,21.5c5.189,1.889,7.785,4.089,8.243,7.039Z" transform="translate(-1 -0.996)" fill="#fff"/>
</svg>
