<svg xmlns="http://www.w3.org/2000/svg"  viewBox="0 0 100 100" width="100px" height="100px"><path fill="#c7ede6" d="M88.2,56.6c0.3-0.6,0.6-1.3,0.8-1.9c2.6-7.7-1.3-17-9.7-19.2C78.4,24.1,70.4,16.4,61.4,15 c-10.3-1.5-19.7,5-22.9,15.4c-3.8-1.3-7.5-1.2-10.9,0.9c-1.6,0.7-3,1.8-4.3,3.2c-1.9,2.1-3.1,4.7-3.6,7.5c-0.7,0.1-1.5,0.2-2.2,0.5 c-4,1.4-6.6,4.4-7.3,8.9c-0.4,2.8,0.4,5.6,0.9,6.7c1.9,4.4,6.4,7,10.9,6.3c0.2,0,0.6,0.1,0.7,0.2c0.2,7.1,3.7,13.4,8.8,16.9 c8.3,5.7,18.9,4,25.7-3.9c2.9,2.9,6.3,4.4,10.3,3.9c4-0.5,7.1-2.7,9.4-6.3c1,0.3,2,0.7,3.1,0.8c4,0.4,7.3-1.2,9.7-4.8 c0.9-1.4,1.8-3.2,1.8-6.3C91.6,61.6,90.3,58.6,88.2,56.6z"/><path fill="#fff" d="M84.5 62h-10c-.3 0-.5-.2-.5-.5s.2-.5.5-.5h10c.3 0 .5.2.5.5S84.8 62 84.5 62zM88.5 62h-2c-.3 0-.5-.2-.5-.5s.2-.5.5-.5h2c.3 0 .5.2.5.5S88.8 62 88.5 62zM93.5 64h-10c-.3 0-.5-.2-.5-.5s.2-.5.5-.5h10c.3 0 .5.2.5.5S93.8 64 93.5 64zM81.5 64h-1c-.3 0-.5-.2-.5-.5s.2-.5.5-.5h1c.3 0 .5.2.5.5S81.8 64 81.5 64zM78.4 64h-1.9c-.3 0-.5-.2-.5-.5s.2-.5.5-.5h1.9c.3 0 .5.2.5.5S78.7 64 78.4 64zM87.5 60h-5c-.3 0-.5-.2-.5-.5s.2-.5.5-.5h5c.3 0 .5.2.5.5S87.8 60 87.5 60zM84.5 66h-2c-.3 0-.5-.2-.5-.5s.2-.5.5-.5h2c.3 0 .5.2.5.5S84.8 66 84.5 66zM16.4 50H6.5C6.2 50 6 49.8 6 49.5S6.2 49 6.5 49h9.9c.3 0 .5.2.5.5S16.7 50 16.4 50zM19.5 50h-1c-.3 0-.5-.2-.5-.5s.2-.5.5-.5h1c.3 0 .5.2.5.5S19.8 50 19.5 50zM24.5 52h-9c-.3 0-.5-.2-.5-.5s.2-.5.5-.5h9c.3 0 .5.2.5.5S24.8 52 24.5 52zM13.5 52h-1c-.3 0-.5-.2-.5-.5s.2-.5.5-.5h1c.3 0 .5.2.5.5S13.8 52 13.5 52zM10.5 52h-2C8.2 52 8 51.8 8 51.5S8.2 51 8.5 51h2c.3 0 .5.2.5.5S10.8 52 10.5 52zM16.5 54h-2c-.3 0-.5-.2-.5-.5s.2-.5.5-.5h2c.3 0 .5.2.5.5S16.8 54 16.5 54zM19.5 45c-.2 0-.8 0-1 0-.3 0-.5.2-.5.5s.2.5.5.5c.2 0 .8 0 1 0 .3 0 .5-.2.5-.5S19.8 45 19.5 45zM19.5 47c-.2 0-4.8 0-5 0-.3 0-.5.2-.5.5s.2.5.5.5c.2 0 4.8 0 5 0 .3 0 .5-.2.5-.5S19.8 47 19.5 47zM24.5 49c-.2 0-2.8 0-3 0-.3 0-.5.2-.5.5s.2.5.5.5c.2 0 2.8 0 3 0 .3 0 .5-.2.5-.5S24.8 49 24.5 49z"/><path fill="#fdfcef" d="M65.1,40.5c0,0-3.6,0-6.1,0s-4.5-2-4.5-4.5c0-2.3,1.8-4.2,4.1-4.5c0-0.2-0.1-0.4-0.1-0.5c0-2.5,2-4.5,4.5-4.5 c1.4,0,2.7,0.7,3.5,1.7c0.1-2.6,2.3-4.7,5-4.7c2.8,0,5,2.2,5,5c0,0.4-0.1,0.9-0.2,1.3c0.6-0.8,1.6-1.3,2.7-1.3 c1.8,0,3.2,1.3,3.5,3.1c0.2,0,0.4-0.1,0.5-0.1c2.5,0,4.5,2,4.5,4.5s-2,4.5-4.5,4.5s-9.5,0-9.5,0h-5.4V41h-3V40.5z"/><path fill="#472b29" d="M71.5,23c3,0,5.5,2.5,5.5,5.5c0,0,0,0,0,0c0.6-0.4,1.3-0.5,2-0.5c1.8,0,3.4,1.3,3.9,3c0,0,0.1,0,0.1,0 c2.8,0,5,2.2,5,5s-2.2,5-5,5H68.1c-0.3,0-0.5-0.2-0.5-0.5s0.2-0.5,0.5-0.5H83c2.2,0,4-1.8,4-4s-1.8-4-4-4c-0.1,0-0.2,0-0.3,0 l-0.1,0c0,0,0,0-0.1,0c-0.2,0-0.5-0.2-0.5-0.4c-0.2-1.5-1.5-2.6-3-2.6c-0.9,0-1.7,0.4-2.3,1.1c-0.1,0.1-0.2,0.2-0.4,0.2 c-0.1,0-0.2,0-0.2-0.1c-0.2-0.1-0.3-0.3-0.3-0.6c0.1-0.4,0.2-0.8,0.2-1.2c0-2.5-2-4.5-4.5-4.5c-2.4,0-4.3,1.9-4.5,4.3 c0,0.2-0.2,0.4-0.3,0.5c-0.1,0-0.1,0-0.2,0c-0.2,0-0.3-0.1-0.4-0.2c-0.8-1-1.9-1.5-3.1-1.5c-2.2,0-4,1.8-4,4c0,0.1,0,0.2,0,0.3 l0,0.1c0,0.1,0,0.3-0.1,0.4S58.7,32,58.6,32c-2.1,0.2-3.6,1.9-3.6,4c0,2.2,1.8,4,4,4h6.1c0.3,0,0.5,0.2,0.5,0.5S65.4,41,65.1,41 H59c-2.8,0-5-2.2-5-5c0-2.4,1.7-4.4,4-4.9c0,0,0-0.1,0-0.1c0-2.8,2.2-5,5-5c1.2,0,2.3,0.4,3.2,1.2C66.8,24.8,68.9,23,71.5,23 L71.5,23z"/><path fill="#472b29" d="M73 30c1.4 0 2.6 1 2.9 2.3.4-.2.8-.3 1.2-.3 1.2 0 2.2.9 2.4 2.1.2 0 .4-.1.6-.1 1.5 0 2.8 1.2 2.9 2.7 0 .1-.1.3-.2.3 0 0 0 0 0 0-.1 0-.2-.1-.2-.2-.1-1.3-1.2-2.3-2.4-2.3-.2 0-.5 0-.7.1 0 0 0 0-.1 0-.1 0-.1 0-.2-.1-.1 0-.1-.1-.1-.2 0-1-.8-1.9-1.9-1.9-.4 0-.9.2-1.2.5 0 0-.1.1-.2.1 0 0-.1 0-.1 0-.1 0-.1-.1-.2-.2-.1-1.3-1.2-2.3-2.5-2.3-.2 0-.4 0-.7.1 0 0 0 0-.1 0-.1 0-.2-.1-.2-.2 0-.1 0-.3.2-.3C72.5 30 72.7 30 73 30L73 30zM59.1 31.5c1.3 0 2.5.9 2.9 2.2 0 .1 0 .3-.2.3 0 0 0 0-.1 0-.1 0-.2-.1-.2-.2-.3-1.1-1.3-1.8-2.4-1.8-.1 0-.2 0-.3 0 0 0 0 0 0 0-.1 0-.2-.1-.2-.2 0-.1.1-.3.2-.3C58.8 31.5 59 31.5 59.1 31.5L59.1 31.5z"/><path fill="#f69272" d="M41.5,75.3c-3.8,0-6.8-3.1-6.8-6.8V37.6c0-3.8,3.1-6.9,6.8-6.9h21.9c3.8,0,6.8,3.1,6.8,6.9v30.9 c0,3.8-3.1,6.8-6.8,6.8H41.5z"/><path fill="#fae8e6" d="M64.5,67.3v-26c0-1.3,1-2.3,2.1-2.3H70l0,28.3H64.5z"/><path fill="#472b29" d="M63.5,31.4c3.4,0,6.1,2.8,6.1,6.1v30.9c0,3.4-2.8,6.2-6.2,6.2H41.5c-3.4,0-6.2-2.8-6.2-6.2V37.5 c0-3.4,2.8-6.1,6.2-6.1L63.5,31.4 M63.5,30H41.6c-4.2,0-7.6,3.4-7.6,7.5v30.9c0,4.2,3.4,7.6,7.5,7.6h21.9c4.2,0,7.6-3.4,7.6-7.6 V37.5C71,33.4,67.6,30,63.5,30L63.5,30z"/><path fill="#472b29" d="M64.5,73c-0.3,0-0.5-0.2-0.5-0.5V41.8c0-1.5,1.3-2.8,2.8-2.8h3.7c0.3,0,0.5,0.2,0.5,0.5S70.8,40,70.5,40h-3.7 c-1,0-1.8,0.8-1.8,1.8v30.7C65,72.8,64.8,73,64.5,73z"/><path fill="#fefdef" d="M44.1,53.4h13.7c0.9,0,1.7-0.8,1.7-1.7v-9.6c0-0.9-0.8-1.7-1.7-1.7H44.1c-0.9,0-1.7,0.8-1.7,1.7v9.6 C42.5,52.7,43.2,53.4,44.1,53.4z"/><path fill="#472b29" d="M49.5,41h-2c-0.3,0-0.5-0.2-0.5-0.5s0.2-0.5,0.5-0.5h2c0.3,0,0.5,0.2,0.5,0.5S49.8,41,49.5,41z"/><g><path fill="#472b29" d="M57.8,54H44.1C43,54,42,53,42,51.8v-9.6c0-1.2,1-2.2,2.1-2.2h1.4c0.3,0,0.5,0.2,0.5,0.5S45.8,41,45.5,41h-1.4 c-0.6,0-1.1,0.5-1.1,1.2v9.6c0,0.7,0.5,1.2,1.1,1.2h13.7c0.6,0,1.2-0.5,1.2-1.2v-9.6c0-0.7-0.5-1.2-1.2-1.2h-6.3 c-0.3,0-0.5-0.2-0.5-0.5s0.2-0.5,0.5-0.5h6.3c1.2,0,2.2,1,2.2,2.2v9.6C60,53,59,54,57.8,54z"/></g><g><path fill="#472b29" d="M37.5,39h-5c-0.3,0-0.5-0.2-0.5-0.5s0.2-0.5,0.5-0.5h5c0.3,0,0.5,0.2,0.5,0.5S37.8,39,37.5,39z"/></g><g><path fill="#472b29" d="M69.5,45h-5c-0.3,0-0.5-0.2-0.5-0.5s0.2-0.5,0.5-0.5h5c0.3,0,0.5,0.2,0.5,0.5S69.8,45,69.5,45z"/></g><g><path fill="#472b29" d="M69.5,51h-5c-0.3,0-0.5-0.2-0.5-0.5s0.2-0.5,0.5-0.5h5c0.3,0,0.5,0.2,0.5,0.5S69.8,51,69.5,51z"/></g><g><path fill="#472b29" d="M69.5,56h-5c-0.3,0-0.5-0.2-0.5-0.5s0.2-0.5,0.5-0.5h5c0.3,0,0.5,0.2,0.5,0.5S69.8,56,69.5,56z"/></g><g><path fill="#472b29" d="M69.5,62h-5c-0.3,0-0.5-0.2-0.5-0.5s0.2-0.5,0.5-0.5h5c0.3,0,0.5,0.2,0.5,0.5S69.8,62,69.5,62z"/></g><g><path fill="#472b29" d="M69.5,68h-5c-0.3,0-0.5-0.2-0.5-0.5s0.2-0.5,0.5-0.5h5c0.3,0,0.5,0.2,0.5,0.5S69.8,68,69.5,68z"/></g><g><path fill="#472b29" d="M37.5,44h-5c-0.3,0-0.5-0.2-0.5-0.5s0.2-0.5,0.5-0.5h5c0.3,0,0.5,0.2,0.5,0.5S37.8,44,37.5,44z"/></g><g><path fill="#472b29" d="M37.5,49h-5c-0.3,0-0.5-0.2-0.5-0.5s0.2-0.5,0.5-0.5h5c0.3,0,0.5,0.2,0.5,0.5S37.8,49,37.5,49z"/></g><g><path fill="#472b29" d="M37.5,54h-5c-0.3,0-0.5-0.2-0.5-0.5s0.2-0.5,0.5-0.5h5c0.3,0,0.5,0.2,0.5,0.5S37.8,54,37.5,54z"/></g><g><path fill="#472b29" d="M37.5,59h-5c-0.3,0-0.5-0.2-0.5-0.5s0.2-0.5,0.5-0.5h5c0.3,0,0.5,0.2,0.5,0.5S37.8,59,37.5,59z"/></g><g><path fill="#472b29" d="M37.2,63h-4.7c-0.3,0-0.5-0.2-0.5-0.5s0.2-0.5,0.5-0.5h4.7c0.3,0,0.5,0.2,0.5,0.5S37.5,63,37.2,63z"/></g><g><path fill="#472b29" d="M37.2,67.8h-4.7c-0.3,0-0.5-0.2-0.5-0.5s0.2-0.5,0.5-0.5h4.7c0.3,0,0.5,0.2,0.5,0.5S37.5,67.8,37.2,67.8z"/></g><g><path fill="#a3a3cd" d="M51,47.7c-1.4,0-2.5-1.1-2.5-2.5s1.1-2.5,2.5-2.5s2.5,1.1,2.5,2.5S52.4,47.7,51,47.7z"/><path fill="#472b29" d="M51,43.3c1.1,0,2,0.9,2,2s-0.9,2-2,2s-2-0.9-2-2S49.9,43.3,51,43.3 M51,42.3c-1.6,0-3,1.3-3,3s1.3,3,3,3 s3-1.3,3-3S52.7,42.3,51,42.3L51,42.3z"/></g><g><path fill="#a3a3cd" d="M46.5,53.5c0.2-2.8,2.1-5.1,4.5-5.1s4.3,2.2,4.5,5.1H46.5z"/><path fill="#472b29" d="M51,48.9c1.9,0,3.6,1.8,3.9,4.1h-7.8C47.4,50.7,49.1,48.9,51,48.9 M51,47.9c-2.8,0-5,2.7-5,6.1h10 C56,50.6,53.8,47.9,51,47.9L51,47.9z"/></g><g><path fill="#a3a3cd" d="M44.5 78.2L42.5 79 42.5 75.5 46.5 75.5 46.5 79z"/><path fill="#472b29" d="M46,76v2.3l-1.2-0.4l-0.4-0.1l-0.4,0.1L43,78.3V76H46 M47,75h-5v4.7l2.5-0.9l2.5,0.9V75L47,75z"/></g><g><path fill="#fdfcef" d="M34.5,72.5c0,0,1.6,0,3.5,0s3.5-1.6,3.5-3.5c0-1.8-1.3-3.2-3.1-3.5c0-0.2,0.1-0.4,0.1-0.5 c0-1.9-1.6-3.5-3.5-3.5c-1,0-2,0.5-2.6,1.2c-0.4-1.8-2-3.2-3.9-3.2c-2.2,0-4,1.8-4,4c0,0.2,0,0.4,0.1,0.6c-0.4-0.3-1-0.6-1.6-0.6 c-1.2,0-2.2,0.9-2.5,2.1c-0.2,0-0.4-0.1-0.5-0.1c-1.9,0-3.5,1.6-3.5,3.5s1.6,3.5,3.5,3.5s7.5,0,7.5,0V73h7V72.5z"/><path fill="#472b29" d="M36.3 68c-.1 0-.3-.1-.3-.3 0-1.2 1-2.2 2.2-2.2 0 0 .7 0 1.2.1.1 0 .2.2.2.3 0 .1-.2.2-.3.2C38.9 66 38.2 66 38.2 66c-.9 0-1.7.8-1.7 1.7C36.5 67.9 36.4 68 36.3 68zM29.5 72A.5.5 0 1 0 29.5 73 .5.5 0 1 0 29.5 72z"/><path fill="#472b29" d="M38,73h-3.5c-0.3,0-0.5-0.2-0.5-0.5s0.2-0.5,0.5-0.5H38c1.7,0,3-1.3,3-3c0-1.5-1.1-2.8-2.6-3 c-0.1,0-0.3-0.1-0.3-0.2s-0.1-0.2-0.1-0.4c0-0.2,0-0.3,0-0.5c0-1.7-1.3-3-3-3c-0.8,0-1.6,0.4-2.2,1c-0.1,0.1-0.3,0.2-0.5,0.1 c-0.2,0-0.3-0.2-0.4-0.4c-0.3-1.6-1.8-2.8-3.4-2.8c-1.9,0-3.5,1.6-3.5,3.5c0,0.1,0,0.3,0,0.4c0,0.2-0.1,0.4-0.2,0.5 s-0.4,0.1-0.6,0C23.9,64.2,23.4,64,23,64c-1,0-1.8,0.7-2,1.6c0,0.3-0.3,0.4-0.6,0.4c-0.2,0-0.3,0-0.5,0c-1.7,0-3,1.3-3,3 s1.3,3,3,3h7.5c0.3,0,0.5,0.2,0.5,0.5S27.8,73,27.5,73H20c-2.2,0-4-1.8-4-4s1.8-4,4-4c0.1,0,0.1,0,0.2,0c0.4-1.2,1.5-2,2.8-2 c0.3,0,0.7,0.1,1,0.2c0.2-2.3,2.1-4.2,4.5-4.2c1.8,0,3.5,1.1,4.2,2.8c0.7-0.5,1.5-0.8,2.3-0.8c2.2,0,4,1.8,4,4c0,0,0,0.1,0,0.1 c1.7,0.4,3,2,3,3.9C42,71.2,40.2,73,38,73z"/><path fill="#472b29" d="M32.5,72c-0.2,0-0.8,0-1,0c-0.3,0-0.5,0.2-0.5,0.5s0.2,0.5,0.5,0.5c0.2,0,0.8,0,1,0c0.3,0,0.5-0.2,0.5-0.5 S32.8,72,32.5,72z"/></g></svg>