<svg xmlns="http://www.w3.org/2000/svg" width="31.526" height="31.528" viewBox="0 0 31.526 31.528">
  <g id="Group_2694" data-name="Group 2694" transform="translate(0.25 0.25)">
    <path id="Path_12" data-name="Path 12" d="M670.073-276.382a1.678,1.678,0,0,1,1.807-1.214h2.664a1.626,1.626,0,0,1,1.642,1.007c.069.16.15.186.3.118.359-.161.733-.29,1.082-.47a6.01,6.01,0,0,1,4.088-.471c1.144.231,2.3.381,3.451.566.068-.091,0-.146-.032-.2a8.482,8.482,0,0,1-.834-6.261,14.165,14.165,0,0,1,2.976-6.081c.128-.153.126-.229-.031-.356a1.5,1.5,0,0,1-.529-1.733,1.493,1.493,0,0,1,1.451-1.083c.229-.012.244-.1.182-.29-.205-.622-.4-1.248-.6-1.872a.956.956,0,0,1,.707-1.354,12.638,12.638,0,0,1,2.66-.549.878.878,0,0,0,.145-.038h2.18a.883.883,0,0,0,.145.038,12.627,12.627,0,0,1,2.63.543.959.959,0,0,1,.724,1.368q-.293.954-.608,1.9c-.062.186-.025.243.178.254a1.554,1.554,0,0,1,1.466,1.067,1.539,1.539,0,0,1-.541,1.756c-.15.123-.147.2-.027.334a12.335,12.335,0,0,1,1.466,2.108,13.308,13.308,0,0,1,1.765,5.732,7.94,7.94,0,0,1-.743,3.851c-.064.139-.163.253.091.33a1.544,1.544,0,0,1,1.146,1.314,1.653,1.653,0,0,1-.715,1.658q-5.44,4.1-10.873,8.2a2.649,2.649,0,0,1-2.4.464q-3.461-.932-6.92-1.868l-3.533-.955c-.156-.042-.3-.109-.376.14a1.6,1.6,0,0,1-1.7,1.258c-.868,0-1.736-.019-2.6.006a1.776,1.776,0,0,1-1.885-1.165Zm22.206-13.006c-1.039,0-2.079.016-3.117-.009a.976.976,0,0,0-.827.383,13.042,13.042,0,0,0-3.076,6.248,7.209,7.209,0,0,0,1.3,5.955.687.687,0,0,0,.474.283c1.682.267,3.361.547,5.045.8a1.931,1.931,0,0,1,1.641,1.019c.1.206.234.087.351.021q1.925-1.084,3.848-2.17a1.144,1.144,0,0,0,.412-.388,7.221,7.221,0,0,0,1-5.51,12.825,12.825,0,0,0-3.2-6.378.708.708,0,0,0-.574-.259C694.458-289.381,693.369-289.387,692.279-289.387ZM687.3-273.436h4.631a2.281,2.281,0,0,0,.3-.009.558.558,0,0,0,.526-.531.538.538,0,0,0-.465-.578c-.314-.07-.634-.118-.952-.17-3.342-.539-6.686-1.067-10.026-1.621a4.684,4.684,0,0,0-2.7.156c-.667.287-1.329.585-2,.86a.416.416,0,0,0-.3.452c.01,1.493,0,2.986.005,4.479,0,.6,0,.6.583.755q5.2,1.407,10.392,2.817a1.714,1.714,0,0,0,1.59-.3q5.334-4.036,10.677-8.058c.419-.316.535-.644.333-.935s-.5-.312-.966-.048q-2.5,1.416-5.006,2.828a1.252,1.252,0,0,0-.408.35,1.536,1.536,0,0,1-1.1.626,1.262,1.262,0,0,0-.487.151c-.991.562-1.988,1.116-2.976,1.683a1.622,1.622,0,0,1-1.8-.041c-.82-.515-1.647-1.019-2.464-1.538a1.329,1.329,0,0,0-.766-.224c-.483.008-.968-.013-1.451-.031a.526.526,0,0,1-.549-.525.534.534,0,0,1,.561-.545c.081,0,.161,0,.242,0Zm-12.1,1.082c0-1.17,0-2.339,0-3.509,0-.444-.179-.619-.627-.62q-1.406,0-2.813,0c-.442,0-.63.174-.631.624q-.009,3.479,0,6.957c0,.447.19.615.636.616q1.391,0,2.783,0c.495,0,.652-.157.652-.65Q675.2-270.645,675.2-272.354Zm17.09-20.21c.817,0,1.635-.007,2.452,0a.338.338,0,0,0,.39-.278c.189-.638.389-1.273.6-1.9.078-.23.02-.323-.208-.387a11.739,11.739,0,0,0-6.534.016c-.223.064-.227.162-.164.348.211.631.42,1.263.606,1.9a.369.369,0,0,0,.435.3C690.678-292.572,691.486-292.564,692.293-292.564Zm.03,1.115c-1.372,0-2.745,0-4.117,0-.332,0-.51.175-.512.466a.448.448,0,0,0,.505.475q4.087.006,8.173,0a.474.474,0,0,0,.47-.269c.168-.349-.064-.674-.493-.676C695.007-291.453,693.665-291.45,692.323-291.45Zm-5.786,19.138-.022.05c.468.284.936.569,1.406.85a.279.279,0,0,0,.264.018c.534-.283,1.063-.575,1.594-.864l-.028-.055Z" transform="translate(-670.073 296.664)" fill="#fff" stroke="#fff" stroke-width="0.5"/>
    <path id="Path_13" data-name="Path 13" d="M995.152-145.109c0-.343-.021-.687.007-1.028a.459.459,0,0,0-.368-.543,2.589,2.589,0,0,1-1.366-3.715,2.485,2.485,0,0,1,1.428-1.193.5.5,0,0,0,.36-.322.489.489,0,0,1,.494-.331.483.483,0,0,1,.494.33.515.515,0,0,0,.387.331,2.641,2.641,0,0,1,1.738,2.3.6.6,0,0,1-.51.7c-.33.023-.574-.218-.6-.614a1.47,1.47,0,0,0-.729-1.219c-.147-.091-.219-.072-.219.116,0,.847.006,1.694,0,2.541,0,.21.139.239.282.29a2.619,2.619,0,0,1,1.781,2.394,2.611,2.611,0,0,1-1.743,2.542.529.529,0,0,0-.385.336.491.491,0,0,1-.5.33.5.5,0,0,1-.493-.336.51.51,0,0,0-.357-.323,2.584,2.584,0,0,1-1.745-2.133,1.332,1.332,0,0,1-.009-.392.505.505,0,0,1,.47-.474.514.514,0,0,1,.583.372,2.149,2.149,0,0,1,.058.357,1.46,1.46,0,0,0,.694,1.081c.163.105.252.1.248-.13C995.145-144.261,995.152-144.685,995.152-145.109Zm0-3.965c0-.392-.006-.784,0-1.176,0-.228-.062-.265-.259-.146a1.523,1.523,0,0,0,.038,2.574c.185.105.223.047.22-.136C995.148-148.329,995.153-148.7,995.152-149.073Zm1.116,4.08c0,.382.005.764,0,1.146,0,.206.052.255.241.144a1.521,1.521,0,0,0,.011-2.56c-.205-.126-.258-.064-.253.153C996.275-145.737,996.268-145.365,996.269-144.993Z" transform="translate(-973.492 161.001)" fill="#fff" stroke="#fff" stroke-width="0.5"/>
    <path id="Path_14" data-name="Path 14" d="M704.761,137.18c.191,0,.383-.013.572,0a.536.536,0,0,1,.5.512.515.515,0,0,1-.42.548,3.468,3.468,0,0,1-1.287,0,.518.518,0,0,1-.41-.584.525.525,0,0,1,.5-.477c.18-.014.362,0,.542,0Z" transform="translate(-701.674 -110.857)" fill="#fff" stroke="#fff" stroke-width="0.5"/>
    <path id="Path_15" data-name="Path 15" d="M704.764,52.545c-.182,0-.364.012-.544,0a.535.535,0,0,1-.084-1.052,3.257,3.257,0,0,1,1.322.005.5.5,0,0,1,.39.543.534.534,0,0,1-.479.5.434.434,0,0,1-.06,0h-.545Z" transform="translate(-701.689 -30.309)" fill="#fff" stroke="#fff" stroke-width="0.5"/>
  </g>
</svg>
