<svg xmlns="http://www.w3.org/2000/svg" width="29.411" height="20.118" viewBox="0 0 29.411 20.118">
  <g id="Group_8" data-name="Group 8" transform="translate(0.3 0.3)">
    <path id="Path_4" data-name="Path 4" d="M73.016,118.424c3.725,0,7.45.039,11.173-.017a3.214,3.214,0,0,1,3.212,3.2c-.05,4.425-.014,8.852-.017,13.277a3.039,3.039,0,0,1-3.05,3.04q-11.319,0-22.637,0a3.024,3.024,0,0,1-3.1-3.093q-.009-6.639,0-13.278a3.009,3.009,0,0,1,3.138-3.128q5.641-.01,11.282,0Zm0,8.469q-6.529,0-13.059-.005c-.312,0-.448.057-.446.415.015,2.454,0,4.909.01,7.364A2.19,2.19,0,0,0,61.866,137Q73,137,84.139,137a2.185,2.185,0,0,0,2.322-2.322q.005-3.646,0-7.291c0-.493,0-.493-.5-.493Zm-.023-.922q6.512,0,13.025.007c.343,0,.462-.091.455-.446q-.031-1.578,0-3.156c.007-.346-.113-.424-.438-.422-2.54.012-5.079.006-7.619.006q-9.215,0-18.431-.008c-.361,0-.483.091-.474.465.024,1.052.02,2.1,0,3.156-.006.328.108.4.419.4Q66.46,125.963,72.99,125.971Zm0-4.934H85.94c.475,0,.511-.056.282-.484a2.187,2.187,0,0,0-2.079-1.2q-6,0-12.006,0H61.873a2.215,2.215,0,0,0-2.114,1.21c-.231.432-.2.481.283.481Z" transform="translate(-58.591 -118.406)" fill="#fff" stroke="#fff" stroke-width="0.6"/>
    <path id="Path_5" data-name="Path 5" d="M332.284,288.59a3.99,3.99,0,0,0-2.038-.053,2.184,2.184,0,0,1-2.3-2.075,2.318,2.318,0,0,1,1.746-2.363,1.994,1.994,0,0,1,1.24.1.808.808,0,0,0,.621,0,2.256,2.256,0,1,1,1.3,4.308C332.7,288.547,332.539,288.555,332.284,288.59Zm-.874-2.283a1.285,1.285,0,0,0-1.271-1.3,1.293,1.293,0,1,0,0,2.585A1.251,1.251,0,0,0,331.41,286.307Zm2.245.006a1.289,1.289,0,0,0-1.3-1.309c-.207,0-.332.021-.2.285a2.2,2.2,0,0,1-.005,2.053c-.108.213-.018.244.167.256A1.249,1.249,0,0,0,333.655,286.313Z" transform="translate(-308.381 -272.024)" fill="#fff" stroke="#fff" stroke-width="0.6"/>
    <path id="Path_6" data-name="Path 6" d="M98.663,311.553q-1.668,0-3.337,0c-.406,0-.6-.155-.6-.46s.2-.46.6-.46q3.337,0,6.674,0c.228,0,.44.023.557.254.17.336-.062.665-.485.667-1.076.007-2.152,0-3.228,0Z" transform="translate(-92.102 -296.68)" fill="#fff" stroke="#fff" stroke-width="0.6"/>
  </g>
</svg>
